<svg class="svg-icon" style="width: 1em; height: 1em;vertical-align: middle;fill: currentColor;overflow: hidden;" viewBox="0 0 1024 1024" version="1.1" xmlns="http://www.w3.org/2000/svg"><path d="M761.7 435.1c-29.4-48.1-68.9-86.3-115.1-111.5 7-16.3 7.2-31 0.7-43.9-7.8-15.3-23.2-23.2-36.9-27.1 4-16.8 5-37.7-9.2-52.2-8.7-8.9-19.9-12.2-30.6-12.8 1.4-5.7 2.7-11.9 3.8-18.4 6.8-39.2 2.8-68.4-11.6-86.9-8.8-11.3-25.6-23.8-56.3-20.6-41.4 4.4-72 21.8-90.9 51.7-18.4 29.1-24.8 69.1-19 119 3.4 29.3 10.5 57.2 17.2 79.2-23.5 9.9-45.7 23.1-66.3 39.5-25.5 20.2-47.9 44.7-66.6 72.8-38.7 58.1-59.1 127.2-59.1 200.1 0 88.6 30.5 172 85.8 234.9 27.1 30.8 58.8 55 94.1 72 36.8 17.7 75.8 26.6 116.1 26.6s79.3-9 116.1-26.6c35.3-17 67-41.2 94.1-72 55.3-62.9 85.8-146.3 85.8-234.9-0.1-67.9-18.1-133.2-52.1-188.9z m-244 482.3c-141.2 0-256-131.7-256-293.5 0-64.9 18.1-126.4 52.4-177.9 32.9-49.3 79.4-86.1 131-103.6l19.1-6.5-6.6-19.1c-6.1-17.6-17.1-52.6-21.3-89.1-4.7-40.5-0.3-71.8 13.1-93 12.2-19.3 32.3-30.2 61.3-33.3 2-0.2 3.8-0.3 5.5-0.3 10.6 0 13.8 4 15.1 5.7 13.1 16.7 3.3 68.5-7.4 98.2l-14.7 40.5 40.3-14.9c8.9-3.2 19.7-4 22.8-2.4 0.5 1.4 2.4 9.6-6.9 32.7l-10.8 26.8 28.9 0.7c10.6 0.2 25.6 4.6 28 9.3 1 2 0.4 9.3-9.2 22.9l-13.9 19.8 22.1 9.9c47.3 21.1 87.7 57.6 117 105.5 30.2 49.4 46.1 107.5 46.1 168 0.1 162-114.7 293.6-255.9 293.6z"  /><path d="M388.8 532.6a33.4 51.6 0 1 0 66.8 0 33.4 51.6 0 1 0-66.8 0Z"  /><path d="M579.9 532.6a33.4 51.6 0 1 0 66.8 0 33.4 51.6 0 1 0-66.8 0Z"  /><path d="M517.7 629.3c-26.4 0-50.6 14.1-68.3 39.8-16.1 23.4-25 54.1-25 86.5s8.9 63.1 25 86.5c17.7 25.7 41.9 39.8 68.3 39.8s50.6-14.1 68.3-39.8c16.1-23.4 25-54.1 25-86.5s-8.9-63.1-25-86.5c-17.7-25.7-41.9-39.8-68.3-39.8z m0 40c20.2 0 38.2 19.3 47.2 47l-45.6 45.6-48-48c9.3-26.4 26.8-44.6 46.4-44.6z m0 172.7c-27.2 0-50.4-35-53.1-78.2l54.7 54.7 51.2-51.2c-3.6 41.5-26.3 74.7-52.8 74.7z"  /></svg>